<svg xmlns="http://www.w3.org/2000/svg" viewBox="107.44501251220703 57.18000030517578 360.11000061035156 336.4299964904785"> <svg xmlns="http://www.w3.org/2000/svg" xmlns:xlink="http://www.w3.org/1999/xlink" version="1.1" id="Layer_1" x="227.526" y="127.18000030517578" viewBox="128.90000915527344 239.80001831054688 310.70001220703125 375.5931701660156" xml:space="preserve" height="145" width="119.94764032507575" preserveAspectRatio="xMinYMin" enable-background="new 0 0 595.3 841.9" style="overflow: visible;"><path class="st0" d="M171.6,347.7l217-40.6c27.8-5.2,51,19.7,51,46.4v214.8c0,26.7-23.2,51.6-51,46.4l-217-40.6  c-23.3-4.4-42.7-21.5-42.7-46.4V394.1C129,369.2,148.3,352.1,171.6,347.7L171.6,347.7z M164.6,370l217-40.6  c13-2.4,24.1,10.9,24.1,24.1V461v107.4c0,13.3-11.1,26.5-24.1,24.1l-217-40.6c-13-2.4-24.1-10.8-24.1-24.1V461v-66.9  C140.5,380.9,151.5,372.5,164.6,370L164.6,370z" style="fill-rule: evenodd; clip-rule: evenodd; fill: #4C3482;"></path><path class="st1" d="M174.7,430.2v61.7h-15.2v-61.7H174.7L174.7,430.2z M381.1,387.5v146.9h-15.2V387.5H381.1L381.1,387.5z   M351.6,370.5v181h-15.2v-181H351.6L351.6,370.5z M322.1,389.1v143.7h-15.2V389.1H322.1L322.1,389.1z M292.6,376.9v168.2h-15.2  V376.9H292.6L292.6,376.9z M263.2,410.4v101.1H248V410.4H263.2L263.2,410.4z M233.7,387V535h-15.2V387H233.7L233.7,387z   M204.2,412.6v96.9H189v-96.9H204.2L204.2,412.6z" style="fill: #F3217C;"></path><path class="st2" d="M182.9,299.7c-2.7-2-3.3-5.8-1.4-8.5c2-2.7,5.8-3.3,8.5-1.4l57.1,41l89.7-89.2c2.4-2.4,6.2-2.4,8.6,0  c2.4,2.4,2.4,6.2,0,8.6L252,343.1l0,0c-2.1,2.1-5.4,2.4-7.8,0.6L182.9,299.7L182.9,299.7z" style="fill: #4C3482;"></path></svg> <svg y="287.0900001525879" viewBox="5.360000133514404 13.260000228881836 220.11000061035156 36.519996643066406" x="177.44501251220703" height="36.519996643066406" width="220.11000061035156" style="overflow: visible;"><g fill="#4C3482" fill-opacity="1" style=""><path d="M22.39 49.37L5.36 49.37L5.36 13.67L21.37 13.67Q27.54 13.67 30.86 16.14Q34.17 18.61 34.17 22.90L34.17 22.90Q34.17 25.81 32.87 27.80Q31.57 29.78 29.38 30.86Q27.18 31.93 24.63 31.93L24.63 31.93L25.55 30.40Q28.61 30.40 30.96 31.47Q33.30 32.54 34.68 34.60Q36.06 36.67 36.06 39.73L36.06 39.73Q36.06 44.32 32.61 46.84Q29.17 49.37 22.39 49.37L22.39 49.37ZM10.46 17.80L10.46 45.24L22.19 45.24Q26.42 45.24 28.66 43.81Q30.91 42.38 30.91 39.32L30.91 39.32Q30.91 36.21 28.66 34.78Q26.42 33.35 22.19 33.35L22.19 33.35L10.00 33.35L10.00 29.22L20.91 29.22Q24.79 29.22 26.93 27.80Q29.07 26.37 29.07 23.51L29.07 23.51Q29.07 20.66 26.93 19.23Q24.79 17.80 20.91 17.80L20.91 17.80L10.46 17.80ZM43.81 49.37L38.56 49.37L54.72 13.67L59.77 13.67L75.99 49.37L70.64 49.37L56.20 16.52L58.24 16.52L43.81 49.37ZM68.39 40.44L45.44 40.44L46.82 36.36L66.91 36.36L68.39 40.44ZM97.41 49.78L97.41 49.78Q93.28 49.78 89.81 48.42Q86.34 47.07 83.79 44.60Q81.24 42.13 79.81 38.81Q78.39 35.50 78.39 31.52L78.39 31.52Q78.39 27.54 79.81 24.23Q81.24 20.91 83.82 18.44Q86.39 15.96 89.86 14.61Q93.33 13.26 97.51 13.26L97.51 13.26Q101.74 13.26 105.26 14.64Q108.78 16.01 111.23 18.77L111.23 18.77L108.07 21.93Q105.88 19.79 103.30 18.79Q100.72 17.80 97.72 17.80L97.72 17.80Q94.66 17.80 92.03 18.82Q89.40 19.84 87.49 21.68Q85.58 23.51 84.53 26.04Q83.49 28.56 83.49 31.52L83.49 31.52Q83.49 34.42 84.53 36.95Q85.58 39.47 87.49 41.34Q89.40 43.20 92.00 44.22Q94.60 45.24 97.66 45.24L97.66 45.24Q100.52 45.24 103.15 44.34Q105.77 43.45 108.02 41.36L108.02 41.36L110.92 45.24Q108.27 47.48 104.73 48.63Q101.18 49.78 97.41 49.78ZM110.92 31.31L110.92 45.24L106.03 44.57L106.03 31.31L110.92 31.31ZM136.02 49.37L130.97 49.37L115.26 13.67L120.77 13.67L135.20 46.61L132.04 46.61L146.57 13.67L151.67 13.67L136.02 49.37ZM182.89 49.37L156.98 49.37L156.98 13.67L182.17 13.67L182.17 18.11L162.08 18.11L162.08 44.93L182.89 44.93L182.89 49.37ZM179.98 33.41L161.62 33.41L161.62 29.07L179.98 29.07L179.98 33.41ZM206.19 49.37L191.15 49.37L191.15 13.67L206.19 13.67Q211.91 13.67 216.27 15.91Q220.63 18.16 223.05 22.18Q225.47 26.21 225.47 31.52L225.47 31.52Q225.47 36.82 223.05 40.85Q220.63 44.88 216.27 47.12Q211.91 49.37 206.19 49.37L206.19 49.37ZM196.25 18.11L196.25 44.93L205.89 44.93Q210.32 44.93 213.56 43.25Q216.80 41.56 218.59 38.53Q220.37 35.50 220.37 31.52L220.37 31.52Q220.37 27.49 218.59 24.48Q216.80 21.47 213.56 19.79Q210.32 18.11 205.89 18.11L205.89 18.11L196.25 18.11Z" transform="translate(0, 0)"></path></g></svg></svg>