<?xml version="1.0" encoding="UTF-8"?><svg id="Layer_1" xmlns="http://www.w3.org/2000/svg" viewBox="0 0 637.08 301.32"><defs><style>.cls-1{fill:#fafafa;}</style></defs><path class="cls-1" d="M237.65,150.97c-1.65-.08-2.92-.12-3.83-.12-1.98,0-3.58.17-4.82.49-1.23.33-2.12,1.07-2.65,2.22-.54,1.15-.8,2.92-.8,5.31,0,2.06.2,3.73.62,5,.41,1.28,1.19,2.18,2.35,2.72,1.15.54,2.84.8,5.06.8s4.26-.06,5.87-.18c1.61-.13,2.98-.31,4.14-.56,1.15-.25,2.06-.53,2.72-.86v-13.83c-.91-.25-2.16-.45-3.77-.62-1.61-.16-3.23-.29-4.88-.37Z"/><path class="cls-1" d="M171.51,140.22c1.11-.33,1.98-1.04,2.59-2.15.62-1.11.92-2.83.92-5.13s-.45-4.04-1.36-5.19c-.91-1.15-2.39-1.77-4.45-1.85-1.07-.08-2.28-.12-3.64-.12h-12.79c-.99,0-1.78.29-2.4.86-.62.58-.93,1.44-.93,2.59v11.49h18.28c1.4,0,2.66-.16,3.77-.49Z"/><path class="cls-1" d="M168.36,149.73h-17.17c-.7,0-1.28-.15-1.73-.45v15.77h16.92c1.65,0,3.13-.04,4.45-.12,1.32-.08,2.46-.34,3.4-.8.95-.45,1.69-1.23,2.22-2.35.54-1.11.8-2.66.8-4.64,0-2.8-.58-4.73-1.73-5.8-1.15-1.07-3.54-1.61-7.16-1.61Z"/><path class="cls-1" d="M301,134.67c-2.55,0-4.54.36-5.98,1.06-1.44.7-2.47,2.03-3.09,4.01-.62,1.98-.93,4.86-.93,8.65s.33,6.42.99,8.4,1.67,3.32,3.03,4.02c1.36.7,3.1,1.04,5.24,1.04,1.81,0,3.53-.26,5.13-.8,1.61-.53,2.9-1.55,3.88-3.03.99-1.48,1.52-3.58,1.61-6.3v-16.55c-.66-.08-1.94-.18-3.83-.3-1.89-.12-3.91-.19-6.05-.19Z"/><path class="cls-1" d="M487.44,135.23c-.86-.04-1.78-.08-2.72-.12-.95-.04-1.88-.07-2.79-.07-3.13,0-5.58.4-7.34,1.18-1.78.78-3.03,2.22-3.77,4.32s-1.11,5.24-1.11,9.44.32,7.49.93,9.63c.62,2.14,1.62,3.61,3.02,4.39,1.4.78,3.17,1.17,5.31,1.17s4.03-.21,5.43-.62c1.4-.41,2.47-1.11,3.21-2.1.74-.99,1.26-2.35,1.55-4.08.29-1.73.43-3.95.43-6.67l-.12-16.43c-.49,0-1.17-.01-2.03-.05Z"/><path class="cls-1" d="M105.32,95.74c-4.55,0-8.24,3.61-8.24,8.06v87.61h160.98v1.95c0,2.62.85,4.74,2.58,6.33,1.73,1.59,4.19,2.83,7.37,3.73,3.18.9,7.07,1.47,11.69,1.77,4.63.25,9.85.39,15.65.39,12.15,0,22.03-1.13,29.62-3.41,6.91-2.07,12.16-5.68,15.81-10.77h168.31s.05,0,.08,0c.26,0,.51,0,.78,0,5.65,0,10.42-.26,14.28-.8,3.86-.54,6.93-1.66,9.23-3.37,2.29-1.7,3.92-4.24,4.92-7.6,1-3.37,1.5-7.88,1.5-13.53l.08-23.82c.03-.42.05-.84.05-1.22v-45.32H105.32ZM196.09,166.84c-.95,2.18-2.42,3.83-4.39,4.94-1.98,1.11-4.53,1.87-7.66,2.28-3.13.41-6.83.62-11.11.62h-34.09c-3.79,0-7-.08-9.63-.25v-51.13c0-2.39.52-3.92,1.55-4.62,1.03-.7,2.44-1.06,4.25-1.06,3.54,0,6.57-.01,9.08-.06,2.51-.04,4.67-.08,6.48-.12,1.81-.04,3.54-.07,5.19-.07h5.31c2.3,0,4.84.03,7.6.07,2.76.04,5.35.05,7.78.05s4.17.04,5.24.12c4.53.33,7.95,1.56,10.25,3.7,2.31,2.14,3.46,5.52,3.46,10.13,0,3.29-.55,5.87-1.66,7.73s-2.5,3.17-4.14,3.95c-1.65.78-3.33,1.21-5.06,1.29,2.14,0,4.02.21,5.63.62,1.61.41,2.94,1.1,4.01,2.04,1.07.95,1.89,2.32,2.47,4.13.58,1.81.86,4.08.86,6.79,0,3.71-.47,6.66-1.41,8.84ZM264.08,171.35c-1.32,1.24-4.59,2.16-9.82,2.78-5.23.62-12.08.93-20.56.93-5.76,0-10.42-.19-13.96-.56-3.54-.37-6.28-1.09-8.21-2.16-1.94-1.07-3.23-2.59-3.89-4.57-.66-1.98-.99-4.53-.99-7.66,0-4.2.41-7.39,1.23-9.57.82-2.18,2.26-3.69,4.32-4.51,2.06-.82,4.82-1.24,8.28-1.24,2.06,0,4.42.02,7.1.06,2.67.04,5.31.1,7.91.18,2.59.08,4.86.23,6.79.43,1.93.21,3.27.39,4.01.56,0-2.55-.23-4.57-.68-6.05-.45-1.48-1.17-2.61-2.16-3.4-.99-.78-2.31-1.3-3.95-1.54-1.65-.25-3.66-.37-6.05-.37-2.88,0-5.74.04-8.58.13-2.84.08-5.6.25-8.27.49-2.68.25-5.12.54-7.35.86v-3.46c0-2.22.49-3.87,1.48-4.94.99-1.07,2.35-1.77,4.08-2.1,1.89-.41,4.71-.7,8.46-.87,3.75-.16,7.8-.25,12.16-.25,5.52,0,10.15.29,13.89.86,3.75.58,6.69,1.61,8.83,3.09,2.14,1.48,3.66,3.69,4.57,6.61.91,2.92,1.36,6.81,1.36,11.67v24.58ZM329.23,128.24c-.05.91-.07,1.96-.07,3.16v33.15c0,6.67-1.1,11.77-3.27,15.31-2.18,3.54-5.54,6-10.07,7.35-4.53,1.36-10.42,2.03-17.66,2.03-3.46,0-6.56-.08-9.32-.25-2.77-.17-5.09-.51-6.98-1.04-1.89-.53-3.35-1.28-4.38-2.22-1.03-.95-1.55-2.21-1.55-3.77v-3.7c.82.41,2.33.85,4.51,1.3,2.18.45,4.58.82,7.22,1.11,2.63.29,4.98.43,7.04.43,4.78,0,8.36-.63,10.75-1.91,2.39-1.28,3.95-3.33,4.69-6.18.51-1.92.74-4.23.71-6.89-.49.75-1.04,1.43-1.63,2-1.44,1.4-3.4,2.41-5.87,3.03-2.47.62-5.6.92-9.39.92-5.19,0-9.37-.63-12.53-1.91-3.17-1.28-5.49-3.53-6.92-6.74-1.44-3.21-2.17-7.78-2.17-13.71,0-5.1.51-9.28,1.55-12.53,1.03-3.25,2.73-5.79,5.12-7.6,2.39-1.81,5.57-3.05,9.58-3.71,3.98-.66,8.99-.99,15-.99,1.81,0,4.03.07,6.67.19,2.64.12,5.3.29,7.97.49,2.68.21,5.04.38,7.09.55,2.06.16,3.42.29,4.08.37-.08.25-.14.82-.18,1.73ZM366.95,174.44h-9.14c-1.4,0-2.59-.14-3.58-.43-.99-.29-1.87-.91-2.66-1.85-.78-.95-1.59-2.41-2.41-4.38l-16.3-42.73h19.14l8.52,25.57c.49,1.48.99,2.53,1.48,3.15.49.62,1.36.92,2.59.92,1.23-4.2,2.45-8.35,3.64-12.47,1.19-4.11,2.41-8.23,3.64-12.35.49-1.48,1.17-2.63,2.04-3.46.86-.82,2.24-1.24,4.14-1.24h7.29l-18.4,49.28ZM444.02,153.19h-34.33c0-1.73.39-3.19,1.17-4.38s2.24-1.79,4.38-1.79h12.35l-.12-2.59c0-3.37-.68-5.91-2.04-7.6-1.36-1.69-3.89-2.53-7.6-2.53-3.05,0-5.42.47-7.1,1.42-1.69.95-2.84,2.59-3.46,4.94-.62,2.35-.93,5.7-.93,10.07,0,3.95.39,6.92,1.17,8.89.78,1.98,2.2,3.32,4.26,4.01,2.06.7,4.98,1.05,8.77,1.05,1.4,0,3.29-.04,5.68-.12,2.39-.08,4.83-.19,7.35-.31,2.51-.12,4.73-.25,6.67-.37,1.93-.12,3.15-.27,3.64-.43v2.22c0,1.15-.19,2.37-.56,3.64-.37,1.28-1.09,2.33-2.16,3.15-1.48,1.16-4.22,1.9-8.21,2.22-3.99.33-9.45.5-16.36.5-5.77,0-10.5-.35-14.2-1.05-3.71-.7-6.63-1.91-8.77-3.64-2.14-1.73-3.67-4.16-4.57-7.29-.91-3.13-1.36-7.2-1.36-12.23,0-6.42.91-11.53,2.72-15.31,1.81-3.79,4.96-6.55,9.45-8.27,4.49-1.73,10.72-2.59,18.71-2.59,6.26,0,11.24.66,14.94,1.98,3.7,1.32,6.38,3.38,8.03,6.18,1.65,2.8,2.47,6.38,2.47,10.74v9.51ZM507.75,149.61c0,5.6-.49,10.07-1.48,13.41-.99,3.33-2.61,5.85-4.87,7.53-2.28,1.69-5.31,2.8-9.14,3.33-3.83.53-8.55.8-14.15.8-5.19,0-9.51-.33-12.97-.99-3.46-.66-6.19-1.89-8.21-3.7-2.03-1.81-3.49-4.32-4.39-7.53s-1.36-7.45-1.36-12.72c0-6.67.99-11.83,2.96-15.49,1.98-3.66,4.8-6.17,8.47-7.53,3.66-1.36,7.96-2.04,12.9-2.04,1.65,0,3.4.08,5.25.25,1.85.16,3.65.4,5.43.69,1.23.21,2.36.44,3.39.71v-14.24h18.28l-.12,37.55Z"/></svg>