<?xml version="1.0" encoding="UTF-8"?><svg id="Layer_1" xmlns="http://www.w3.org/2000/svg" viewBox="0 0 96.9 95.67"><defs><style>.cls-1{fill:#571b14;}</style></defs><path class="cls-1" d="M56.61,42.03c1.11-.33,1.98-1.04,2.59-2.15.62-1.11.92-2.83.92-5.13s-.45-4.03-1.36-5.19c-.91-1.15-2.39-1.77-4.45-1.85-1.07-.08-2.28-.12-3.64-.12h-12.79c-.99,0-1.78.29-2.4.86-.62.58-.93,1.44-.93,2.59v11.49h18.28c1.4,0,2.66-.17,3.77-.49Z"/><path class="cls-1" d="M53.45,51.54h-17.17c-.7,0-1.28-.15-1.73-.45v15.77h16.92c1.65,0,3.13-.04,4.45-.12,1.32-.08,2.46-.34,3.4-.8.95-.45,1.69-1.23,2.22-2.35.54-1.11.8-2.66.8-4.64,0-2.8-.58-4.73-1.73-5.8-1.15-1.07-3.54-1.61-7.16-1.61Z"/><path class="cls-1" d="M8.21,0C3.68,0,0,3.68,0,8.21v87.45h83.25c2.84-.63,5.18-1.62,7.03-2.99,2.31-1.73,3.97-4.29,4.98-7.7,1.01-3.41,1.52-7.98,1.52-13.71l.08-24.13c.03-.43.05-.85.05-1.24V0H8.21ZM81.19,68.65c-.95,2.18-2.42,3.83-4.39,4.94-1.98,1.11-4.53,1.87-7.66,2.28-3.13.41-6.83.62-11.11.62H23.93c-3.79,0-7-.08-9.63-.25V25.11c0-2.39.52-3.92,1.55-4.62,1.03-.7,2.44-1.06,4.25-1.06,3.54,0,6.57-.01,9.08-.06,2.51-.04,4.67-.08,6.48-.12,1.81-.04,3.54-.07,5.19-.07h5.31c2.3,0,4.84.03,7.6.07,2.76.04,5.35.05,7.78.05s4.17.04,5.24.12c4.53.33,7.95,1.56,10.25,3.7,2.3,2.14,3.46,5.52,3.46,10.13,0,3.29-.55,5.87-1.66,7.73-1.11,1.85-2.5,3.17-4.14,3.95-1.65.78-3.33,1.21-5.06,1.29,2.14,0,4.02.21,5.63.62,1.61.41,2.94,1.1,4.01,2.04,1.07.95,1.89,2.32,2.47,4.13.58,1.81.86,4.08.86,6.79,0,3.71-.47,6.66-1.41,8.84Z"/></svg>