<?xml version="1.0" encoding="UTF-8"?><svg id="Layer_1" xmlns="http://www.w3.org/2000/svg" viewBox="0 0 637.08 301.32"><defs><style>.cls-1{fill:#fafafa;}</style></defs><path class="cls-1" d="M105.32,95.74c-4.55,0-8.24,3.61-8.24,8.06v87.61h160.98v1.95c0,2.62.85,4.74,2.58,6.33,1.73,1.59,4.19,2.83,7.37,3.73,3.18.9,7.07,1.47,11.69,1.77,4.63.25,9.85.39,15.65.39,12.15,0,22.03-1.13,29.62-3.41,6.91-2.07,12.16-5.68,15.81-10.77h168.31s.05,0,.08,0c.26,0,.51,0,.78,0,5.65,0,10.42-.26,14.28-.8,3.86-.54,6.93-1.66,9.23-3.37,2.29-1.7,3.92-4.24,4.92-7.6,1-3.37,1.5-7.88,1.5-13.53l.08-23.82c.03-.42.05-.84.05-1.22v-45.32H105.32Z"/><path d="M196.64,151.21c-.58-1.81-1.4-3.18-2.47-4.13-1.07-.95-2.4-1.63-4.01-2.04-1.61-.41-3.49-.62-5.63-.62,1.73-.08,3.42-.51,5.06-1.29,1.65-.78,3.03-2.1,4.14-3.95,1.11-1.85,1.66-4.43,1.66-7.73,0-4.61-1.15-7.99-3.46-10.13-2.31-2.14-5.72-3.38-10.25-3.7-1.07-.08-2.81-.12-5.24-.12s-5.02-.01-7.78-.05c-2.76-.04-5.3-.07-7.6-.07h-5.31c-1.65,0-3.38.03-5.19.07-1.81.04-3.97.08-6.48.12-2.51.04-5.54.05-9.08.05-1.81,0-3.22.36-4.25,1.06-1.03.7-1.55,2.24-1.55,4.62v51.13c2.63.16,5.85.25,9.63.25h34.09c4.28,0,7.99-.21,11.11-.62,3.13-.41,5.68-1.17,7.66-2.28,1.98-1.11,3.44-2.76,4.39-4.94.95-2.18,1.41-5.13,1.41-8.84,0-2.72-.29-4.98-.86-6.79ZM149.46,129.23c0-1.15.32-2.02.93-2.59.62-.58,1.41-.86,2.4-.86h12.79c1.36,0,2.57.04,3.64.12,2.06.08,3.54.7,4.45,1.85.91,1.15,1.36,2.88,1.36,5.19s-.3,4.02-.92,5.13c-.62,1.11-1.48,1.83-2.59,2.15-1.11.33-2.37.49-3.77.49h-18.28v-11.49ZM176.45,161.78c-.54,1.11-1.28,1.89-2.22,2.35-.95.45-2.09.71-3.4.8-1.32.08-2.8.12-4.45.12h-16.92v-15.77c.45.3,1.03.45,1.73.45h17.17c3.62,0,6.01.54,7.16,1.61,1.15,1.07,1.73,3.01,1.73,5.8,0,1.98-.26,3.53-.8,4.64Z"/><path d="M233.69,175.05c-5.76,0-10.42-.18-13.96-.56-3.54-.37-6.28-1.09-8.21-2.16-1.94-1.07-3.23-2.59-3.89-4.57s-.99-4.53-.99-7.66c0-4.2.41-7.39,1.23-9.57.82-2.18,2.26-3.69,4.32-4.51,2.06-.82,4.82-1.24,8.28-1.24,2.06,0,4.43.02,7.1.06,2.67.04,5.31.1,7.91.18,2.59.08,4.86.23,6.79.43,1.93.21,3.27.39,4.01.56,0-2.55-.23-4.57-.68-6.05-.45-1.48-1.17-2.61-2.16-3.4-.99-.78-2.31-1.3-3.95-1.54-1.65-.25-3.66-.37-6.05-.37-2.88,0-5.74.04-8.58.13-2.84.08-5.6.25-8.28.49-2.68.25-5.12.54-7.35.86v-3.46c0-2.22.49-3.87,1.48-4.94.99-1.07,2.35-1.77,4.08-2.1,1.89-.41,4.71-.7,8.46-.87,3.75-.16,7.8-.25,12.16-.25,5.52,0,10.15.29,13.89.86,3.75.58,6.69,1.61,8.83,3.09,2.14,1.48,3.66,3.69,4.57,6.61.91,2.92,1.36,6.81,1.36,11.67v24.58c-1.32,1.24-4.59,2.16-9.82,2.78-5.23.62-12.08.93-20.56.93ZM233.57,167.4c2.3,0,4.26-.06,5.87-.18,1.61-.13,2.98-.31,4.14-.56,1.15-.25,2.06-.53,2.72-.86v-13.83c-.91-.25-2.16-.45-3.77-.62-1.61-.16-3.23-.29-4.88-.37-1.65-.08-2.92-.12-3.83-.12-1.98,0-3.58.17-4.82.49-1.23.33-2.12,1.07-2.65,2.22-.54,1.15-.8,2.92-.8,5.31,0,2.06.2,3.73.62,5,.41,1.28,1.19,2.18,2.35,2.72,1.15.54,2.84.8,5.06.8Z"/><path d="M325.33,126.14c-2.06-.16-4.42-.34-7.09-.55s-5.34-.37-7.97-.49c-2.63-.12-4.86-.19-6.67-.19-6.01,0-11.02.33-15,.99-4.01.66-7.19,1.89-9.58,3.71-2.39,1.81-4.09,4.35-5.12,7.6-1.04,3.25-1.55,7.42-1.55,12.53,0,5.93.73,10.5,2.17,13.71,1.43,3.21,3.75,5.46,6.92,6.74,3.16,1.28,7.34,1.91,12.53,1.91,3.79,0,6.92-.3,9.39-.92,2.47-.62,4.43-1.63,5.87-3.03.59-.58,1.14-1.25,1.63-2,.03,2.66-.21,4.97-.71,6.89-.74,2.84-2.31,4.9-4.69,6.18-2.39,1.28-5.97,1.91-10.74,1.91-2.06,0-4.4-.14-7.04-.43-2.64-.29-5.04-.66-7.22-1.11-2.18-.45-3.69-.89-4.51-1.3v3.7c0,1.56.52,2.83,1.55,3.77,1.03.95,2.48,1.69,4.38,2.22,1.89.54,4.21.88,6.98,1.04,2.76.16,5.86.25,9.32.25,7.25,0,13.13-.67,17.66-2.03,4.53-1.36,7.89-3.81,10.07-7.36,2.17-3.54,3.27-8.64,3.27-15.31v-33.15c0-1.19.01-2.25.07-3.16.04-.91.1-1.48.18-1.73-.66-.08-2.02-.21-4.08-.37ZM305.39,161.04c-1.61.54-3.32.8-5.13.8-2.14,0-3.88-.34-5.24-1.04-1.36-.7-2.37-2.04-3.03-4.02-.66-1.98-.99-4.78-.99-8.4s.32-6.67.93-8.65,1.65-3.31,3.09-4.01c1.44-.7,3.43-1.06,5.98-1.06,2.14,0,4.16.07,6.05.19,1.89.12,3.17.22,3.83.3v16.55c-.08,2.72-.62,4.82-1.61,6.3-.99,1.48-2.28,2.5-3.88,3.03Z"/><path d="M357.81,174.44c-1.4,0-2.59-.14-3.58-.43-.99-.29-1.87-.91-2.66-1.85s-1.59-2.41-2.41-4.38l-16.3-42.73h19.14s8.52,25.57,8.52,25.57c.49,1.48.99,2.53,1.48,3.15.49.62,1.36.92,2.59.92,1.23-4.2,2.45-8.35,3.64-12.47,1.19-4.11,2.41-8.23,3.64-12.35.49-1.48,1.17-2.63,2.04-3.46.86-.82,2.24-1.24,4.14-1.24h7.29s-18.4,49.28-18.4,49.28h-9.14Z"/><path d="M416.6,175.18c-5.77,0-10.5-.35-14.2-1.05-3.71-.7-6.63-1.91-8.77-3.64-2.14-1.73-3.67-4.16-4.57-7.29-.91-3.13-1.36-7.2-1.36-12.23,0-6.42.91-11.53,2.72-15.31,1.81-3.79,4.96-6.55,9.45-8.27,4.49-1.73,10.72-2.59,18.71-2.59,6.26,0,11.24.66,14.94,1.98,3.7,1.32,6.38,3.38,8.03,6.18,1.65,2.8,2.47,6.38,2.47,10.74v9.51s-34.33,0-34.33,0c0-1.73.39-3.19,1.17-4.38.78-1.19,2.24-1.79,4.38-1.79h12.35s-.12-2.59-.12-2.59c0-3.37-.68-5.91-2.04-7.6-1.36-1.69-3.89-2.53-7.6-2.53-3.05,0-5.42.47-7.1,1.42-1.69.95-2.84,2.59-3.46,4.94-.62,2.35-.93,5.7-.93,10.07,0,3.95.39,6.91,1.17,8.89.78,1.98,2.2,3.32,4.26,4.01,2.06.7,4.98,1.05,8.77,1.05,1.4,0,3.29-.04,5.68-.12,2.39-.08,4.84-.18,7.35-.31,2.51-.12,4.73-.25,6.67-.37,1.93-.12,3.15-.27,3.64-.43v2.22c0,1.15-.19,2.37-.56,3.64-.37,1.28-1.09,2.33-2.16,3.15-1.48,1.16-4.22,1.89-8.21,2.22-3.99.33-9.45.5-16.36.5Z"/><path d="M489.59,112.06v14.24c-1.03-.27-2.15-.51-3.39-.71-1.78-.29-3.58-.52-5.43-.69-1.85-.16-3.61-.25-5.26-.25-4.94,0-9.24.69-12.9,2.04-3.66,1.36-6.49,3.87-8.47,7.53s-2.96,8.82-2.96,15.49c0,5.27.45,9.51,1.36,12.72.91,3.21,2.36,5.72,4.39,7.53,2.02,1.81,4.75,3.05,8.21,3.7,3.46.66,7.78.99,12.97.99,5.6,0,10.32-.26,14.15-.8,3.83-.54,6.86-1.65,9.14-3.33,2.26-1.69,3.88-4.2,4.87-7.53.99-3.33,1.48-7.81,1.48-13.41l.12-37.55h-18.28ZM489.17,158.38c-.29,1.73-.81,3.09-1.55,4.08-.74.99-1.81,1.69-3.21,2.1-1.4.41-3.21.62-5.43.62s-3.91-.38-5.31-1.17c-1.4-.78-2.4-2.25-3.02-4.39-.62-2.14-.93-5.35-.93-9.63s.37-7.34,1.11-9.44c.74-2.1,1.99-3.54,3.77-4.32,1.76-.78,4.21-1.18,7.34-1.18.91,0,1.84.03,2.79.07.93.04,1.85.08,2.72.12.87.04,1.54.05,2.03.05l.12,16.43c0,2.72-.14,4.94-.43,6.67Z"/></svg>