<?xml version="1.0" encoding="UTF-8"?><svg id="Layer_1" xmlns="http://www.w3.org/2000/svg" viewBox="0 0 96.9 95.67"><defs><style>.cls-1{fill:#571b14;}.cls-2{fill:#fff;}</style></defs><path class="cls-1" d="M0,95.67h83.25c2.84-.63,5.18-1.62,7.03-2.99,2.31-1.73,3.97-4.29,4.98-7.7,1.01-3.41,1.52-7.98,1.52-13.71l.08-24.13c.03-.43.05-.85.05-1.24V0H8.21C3.68,0,0,3.68,0,8.21v87.45Z"/><path class="cls-2" d="M81.73,53.02c-.58-1.81-1.4-3.18-2.47-4.13-1.07-.95-2.4-1.63-4.01-2.04-1.61-.41-3.49-.62-5.63-.62,1.73-.08,3.42-.51,5.06-1.29,1.65-.78,3.03-2.1,4.14-3.95,1.11-1.85,1.66-4.43,1.66-7.73,0-4.61-1.15-7.99-3.46-10.13-2.31-2.14-5.72-3.38-10.25-3.7-1.07-.08-2.81-.12-5.24-.12s-5.02-.01-7.78-.05c-2.76-.04-5.3-.07-7.6-.07h-5.31c-1.65,0-3.38.03-5.19.07-1.81.04-3.97.08-6.48.12-2.51.04-5.54.05-9.08.05-1.81,0-3.22.36-4.25,1.06-1.03.7-1.55,2.24-1.55,4.62v51.13c2.63.16,5.85.25,9.63.25h34.09c4.28,0,7.99-.21,11.11-.62,3.13-.41,5.68-1.17,7.66-2.28,1.98-1.11,3.44-2.76,4.39-4.94.95-2.18,1.41-5.13,1.41-8.84,0-2.72-.29-4.98-.86-6.79ZM34.56,31.04c0-1.15.32-2.02.93-2.59.62-.58,1.41-.86,2.4-.86h12.79c1.36,0,2.57.04,3.64.12,2.06.08,3.54.7,4.45,1.85.91,1.15,1.36,2.88,1.36,5.19s-.3,4.02-.92,5.13c-.62,1.11-1.48,1.83-2.59,2.15-1.11.33-2.37.49-3.77.49h-18.28v-11.49ZM61.55,63.59c-.54,1.11-1.28,1.89-2.22,2.35-.95.45-2.09.71-3.4.8-1.32.08-2.8.12-4.45.12h-16.92v-15.77c.45.3,1.03.45,1.73.45h17.17c3.62,0,6.01.54,7.16,1.61,1.15,1.07,1.73,3.01,1.73,5.8,0,1.98-.26,3.53-.8,4.64Z"/></svg>